<?xml version="1.0" standalone="no"?>
<!DOCTYPE svg PUBLIC "-//W3C//DTD SVG 20010904//EN"
 "http://www.w3.org/TR/2001/REC-SVG-20010904/DTD/svg10.dtd">
<svg version="1.0" xmlns="http://www.w3.org/2000/svg"
 width="700.000000pt" height="700.000000pt" viewBox="0 0 700.000000 700.000000"
 preserveAspectRatio="xMidYMid meet">
<metadata>
Created by potrace 1.14, written by Peter Selinger 2001-2017
</metadata>
<g transform="translate(0.000000,700.000000) scale(0.100000,-0.100000)"
fill="#000000" stroke="none">
<path d="M3278 6996 c-1 -2 -39 -6 -83 -10 -398 -31 -839 -152 -1215 -334
-849 -411 -1502 -1152 -1799 -2040 -51 -155 -64 -203 -105 -392 -36 -167 -46
-235 -63 -420 -15 -163 -8 -591 12 -711 2 -13 6 -46 9 -74 9 -78 23 -156 51
-285 30 -141 110 -396 173 -550 280 -692 803 -1300 1452 -1687 390 -233 860
-399 1299 -459 25 -3 57 -8 71 -10 163 -25 682 -25 842 1 13 2 46 7 73 10 72
10 86 12 120 19 17 3 44 8 60 11 342 65 741 212 1041 385 48 28 89 50 91 50 2
0 9 5 16 10 7 6 64 44 127 86 420 279 792 670 1057 1114 179 299 344 713 409
1025 16 75 54 300 60 350 4 33 9 76 11 95 8 70 10 517 3 595 -15 159 -21 210
-25 225 -2 8 -7 35 -10 60 -8 59 -40 212 -70 330 -85 337 -251 710 -452 1020
-54 82 -196 274 -248 335 -445 517 -970 874 -1590 1079 -162 54 -406 114 -535
131 -19 3 -46 7 -60 10 -13 2 -54 7 -90 11 -36 3 -78 8 -95 11 -33 5 -531 13
-537 9z m117 -585 c0 -132 -4 -215 -10 -219 -12 -7 -17 -8 -88 -16 -48 -5
-123 -16 -212 -31 -25 -5 -104 -21 -150 -31 -77 -16 -206 -54 -315 -91 -373
-125 -685 -313 -945 -568 l-80 -78 -288 -1 c-159 -1 -290 1 -292 5 -4 5 68
101 138 184 23 27 89 97 147 156 139 139 198 191 343 298 84 61 117 84 242
163 143 90 386 203 584 272 117 40 363 107 451 121 168 27 204 32 315 40 50 4
91 9 93 10 2 2 18 2 35 1 l32 -3 0 -212z m380 205 c39 -3 108 -12 155 -21 47
-9 110 -20 140 -25 46 -7 219 -41 284 -55 11 -3 63 -19 115 -36 533 -175 995
-476 1352 -880 76 -85 169 -205 169 -216 0 -4 -129 -8 -286 -8 l-287 0 -32 30
c-18 17 -62 57 -97 90 -290 270 -628 466 -1000 579 -65 20 -128 38 -140 40
-13 2 -44 9 -70 15 -102 23 -311 51 -415 55 -23 1 -45 5 -48 8 -6 5 -9 189 -6
364 l1 72 48 -4 c26 -2 79 -6 117 -8z m-10 -820 c17 -2 50 -7 75 -11 25 -3 52
-7 60 -9 78 -15 102 -20 150 -33 30 -8 64 -16 74 -18 87 -19 313 -109 436
-173 116 -61 291 -171 275 -173 -38 -5 -2665 -3 -2665 3 0 6 56 45 148 102
154 97 475 228 637 262 148 30 166 34 205 39 19 3 62 8 95 11 33 3 61 7 63 9
5 5 410 -3 447 -9z m-2972 -856 c13 -25 63 -115 109 -200 138 -250 129 -231
115 -255 -56 -86 -144 -382 -182 -610 -12 -74 -20 -213 -20 -365 0 -205 8
-287 51 -515 32 -171 31 -166 60 -270 97 -350 238 -627 448 -879 36 -43 66
-82 66 -85 0 -3 -68 -73 -151 -156 l-150 -149 -43 44 c-247 261 -453 633 -571
1030 -68 228 -108 434 -141 730 -15 131 -10 412 11 585 12 99 17 139 20 159
30 171 39 222 56 293 27 112 80 281 119 378 34 85 128 277 139 285 4 3 11 14
15 24 8 23 16 16 49 -44z m5481 17 c127 -221 237 -517 271 -727 3 -19 8 -42
10 -50 2 -8 7 -31 10 -50 3 -19 10 -60 15 -90 52 -323 57 -602 15 -970 -3 -30
-8 -60 -10 -67 -2 -6 -7 -38 -11 -70 -3 -32 -8 -61 -10 -64 -2 -4 -6 -24 -10
-45 -17 -113 -91 -343 -154 -481 -33 -71 -41 -82 -57 -75 -11 4 -100 40 -199
81 l-180 75 57 152 c48 126 95 287 115 389 11 59 14 73 19 110 12 78 14 91 21
190 12 153 6 405 -11 496 -2 12 -9 54 -15 95 -25 186 -87 422 -148 570 l-30
72 135 246 c74 135 138 246 141 246 4 0 15 -15 26 -33z m-831 -136 l48 -1 -44
-82 c-24 -46 -120 -220 -212 -388 -92 -168 -186 -339 -208 -380 -23 -41 -51
-93 -63 -115 -32 -56 -44 -79 -94 -170 -23 -44 -78 -143 -120 -220 -84 -153
-625 -1138 -671 -1221 -15 -29 -103 -188 -194 -355 -92 -167 -183 -333 -203
-369 -19 -36 -66 -121 -104 -189 -37 -68 -68 -129 -68 -135 0 -23 -31 30 -230
394 -35 63 -74 135 -88 160 -13 25 -40 74 -60 110 -19 36 -56 103 -82 150 -26
47 -64 117 -85 155 -21 39 -58 105 -82 147 -23 43 -43 80 -43 83 0 3 -10 22
-23 43 -13 20 -42 71 -64 112 -22 41 -52 95 -65 120 -52 93 -417 758 -453 825
-21 39 -41 75 -45 80 -6 9 -39 70 -123 225 -10 19 -28 53 -41 75 -27 50 -54
97 -310 565 l-206 375 58 5 c44 4 3669 5 3875 1z m-4145 -801 c16 -30 41 -75
54 -100 14 -25 89 -162 168 -305 78 -143 154 -280 168 -305 47 -86 85 -155
117 -215 18 -33 92 -168 165 -300 73 -132 147 -267 165 -300 18 -33 44 -80 57
-105 51 -92 142 -257 171 -310 16 -30 42 -77 57 -105 15 -27 78 -142 140 -255
122 -222 144 -263 197 -357 l34 -62 -56 19 c-215 74 -457 206 -647 352 -113
88 -303 274 -390 384 -243 304 -403 657 -473 1044 -22 117 -30 232 -30 410 0
193 7 270 40 440 14 69 25 127 25 129 0 8 8 -4 38 -59z m4466 -60 c34 -181 40
-251 41 -450 0 -225 -9 -316 -51 -509 -48 -226 -129 -436 -249 -646 -259 -457
-682 -820 -1179 -1012 -48 -19 -90 -32 -93 -29 -3 3 25 60 63 128 37 68 81
148 97 178 16 30 37 69 47 85 9 17 34 62 55 100 67 123 81 149 107 195 14 25
81 146 148 270 136 249 133 245 285 520 59 107 123 224 143 260 19 35 78 143
132 240 53 96 119 216 145 265 27 50 57 104 67 120 10 17 22 39 27 50 5 11 28
54 51 95 68 121 113 203 124 227 14 29 20 17 40 -87z m315 -1807 c102 -42 189
-79 194 -83 9 -8 -67 -164 -133 -270 -63 -102 -155 -221 -244 -315 l-67 -69
-155 155 -156 156 85 95 c56 64 116 148 178 252 52 86 98 156 103 156 4 0 92
-34 195 -77z m-4398 -615 c391 -339 737 -533 1129 -633 36 -10 74 -19 85 -20
63 -10 138 -25 140 -27 1 -2 48 -88 105 -193 57 -104 114 -209 127 -233 12
-23 23 -45 23 -48 0 -7 -115 3 -255 22 -36 4 -146 25 -215 40 -14 3 -36 7 -50
10 -14 3 -59 14 -100 25 -414 114 -791 308 -1115 574 -103 84 -265 236 -265
248 0 9 292 305 301 306 4 1 44 -32 90 -71z m3916 -342 c-202 -195 -541 -427
-781 -535 -25 -12 -67 -30 -92 -42 -147 -66 -408 -150 -544 -176 -14 -2 -43
-8 -65 -13 -22 -5 -62 -12 -90 -16 -27 -3 -53 -8 -56 -9 -3 -2 -39 -7 -80 -10
-41 -3 -95 -8 -121 -10 -27 -2 -48 -1 -48 3 0 4 14 32 31 62 17 30 47 84 67
120 19 36 43 79 52 95 9 17 39 70 66 119 27 49 54 90 59 91 6 2 72 17 148 35
366 85 687 225 935 409 97 72 121 93 221 187 l75 72 153 -152 153 -151 -83
-79z"/>
</g>
</svg>
